<svg xmlns="http://www.w3.org/2000/svg" width="256" height="256" fill="none" viewBox="0 0 256 256">
  <g transform="translate(16.64 16.64) scale(.87)">
  <path d="m194 252.1h-130.9c-31.02 0-55.1-21.91-55.1-52.14v-136.2c0-31.7 20.44-55.78 53.5-55.78h131.7c31 0 54.77 22.7 54.77 52.93v132.4c0 31.97-20.88 58.78-53.98 58.78z" fill="#000" opacity=".07"/>
  <path d="m194.8 246.2h-132.8c-29.38 0-53.21-20.31-53.21-52.52v-130.3c0-32.26 20.41-56.15 52.53-56.15h132.8c30.7 0 53.85 22.7 53.85 52.93v131.9c0 31.57-20.43 54.1-53.12 54.1z" fill="#000" opacity=".07"/>
  <path d="m194.2 243.9h-132.5c-30.7 0-53.27-20.31-53.27-52.52v-127.7c0-32.69 18.22-57.97 51.32-57.97h133.5c30.7 0 54.34 21.91 54.34 52.14v130.3c0 31.97-19.25 55.71-53.36 55.71z" fill="url(#paint0_radial_169_3721)"/>
  <path d="m194.2 243.9h-132.5c-30.7 0-53.27-20.31-53.27-52.52v-127.7c0-32.69 18.22-57.97 51.32-57.97h133.5c30.7 0 54.34 21.91 54.34 52.14v130.3c0 31.97-19.25 55.71-53.36 55.71z" fill="url(#paint0_linear_highlight_169_3721)" opacity=".24"/>
  <path d="m194.2 243.9h-132.5c-30.7 0-53.27-20.31-53.27-52.52v-127.7c0-32.69 18.22-57.97 51.32-57.97h133.5c30.7 0 54.34 21.91 54.34 52.14v130.3c0 31.97-19.25 55.71-53.36 55.71z" stroke="url(#paint0_stroke_169_3721)" stroke-width="2.6" opacity=".65"/>
  </g>
  <g transform="translate(25.60 25.60) scale(.80)">
  <path d="m189.3 53.03h-13.24c-10.89 0-15.24 8.15-15.24 17.98v111.3c0 9.93 5.26 16.22 14.58 16.22h13.8c10.57 0 16.21-6.19 16.21-16.56v-110.9c0-10.9-5.2-17.98-16.11-17.98z" fill="#000" opacity=".05"/>
  <path d="m189.5 54.55h-12.77c-10.56 0-15.88 6.58-15.88 17.67v108.7c0 10.17 5.42 16.11 14.84 16.11h13.14c10.91 0 15.66-6.64 15.66-17.11v-108.8c0-10.52-4.84-16.55-14.99-16.55z" fill="#000" opacity=".07"/>
  <path d="m189 52.85h-12.86c-10.56 0-15.33 7.26-15.33 17.39v110.5c0 9.95 5.42 15.54 14.38 15.54h13.51c10.56 0 15.75-6.13 15.75-15.59v-110.5c0-10.52-5.25-17.34-15.45-17.34z" fill="url(#paint1_linear_169_3721)"/>
  <path d="m134.7 95.7h-13.24c-10.37 0-15.23 7.08-15.23 17.45v67.96c0 10.32 5.57 16.4 14.89 16.4h13.51c9.66 0 15.23-6.8 15.23-16.26v-69.24c0-10.47-4.86-16.31-15.16-16.31z" fill="#000" opacity=".05"/>
  <path d="m134.7 94.92h-12.65c-10.57 0-15.33 6.99-15.33 17.26v67.88c0 9.93 4.96 16.06 14.38 16.06h13.14c10.56 0 15.14-6.99 15.14-16.45v-68.66c0-10.52-4.52-16.09-14.68-16.09z" fill="#000" opacity=".07"/>
  <path d="m134.4 94.92h-12.86c-10.07 0-14.87 6.58-14.87 16.71v68.48c0 9.95 5.42 15.7 14.84 15.7h13.14c10.07 0 14.42-7.08 14.42-16.54v-68.21c0-10.52-4.83-16.14-14.67-16.14z" fill="url(#paint2_linear_169_3721)"/>
  <path d="m80.14 53.03h-13.24c-10.57 0-15.89 7.08-15.89 17.21v110.5c0 9.95 6.1 15.85 15.52 15.85h13.51c9.66 0 14.85-6.99 14.85-16.45v-110c0-10.52-5.91-17.16-14.75-17.16z" fill="#000" opacity=".05"/>
  <path d="m80.13 52.85h-13.55c-10.07 0-15.57 6.58-15.57 16.71v110.1c0 9.95 6.1 16.17 15.52 16.17h13.8c9.9 0 15.09-6.9 15.09-16.35v-109.8c0-10.52-5.46-16.86-15.29-16.86z" fill="#000" opacity=".07"/>
  <path d="m79.91 52.85h-13.54c-9.48 0-15.36 6.34-15.36 16.76v110c0 9.95 6.1 16.38 15.52 16.38h13.8c9.42 0 14.38-6.89 14.38-16.35v-109.5c0-10.52-5.32-17.34-14.8-17.34z" fill="url(#paint3_linear_169_3721)"/>
  </g>
  <defs>
    <radialGradient id="paint0_radial_169_3721" cx="0" cy="0" r="1" gradientTransform="translate(211.7 230.7) scale(275.1 270.1)" gradientUnits="userSpaceOnUse">
      <stop stop-color="#E197F1" offset="0"/>
      <stop stop-color="#8E6BDA" offset=".3501"/>
      <stop stop-color="#484BAE" offset=".7159"/>
      <stop stop-color="#19195B" offset="1"/>
    </radialGradient>
    <linearGradient id="paint0_linear_highlight_169_3721" x1="58" x2="161" y1="20" y2="148" gradientUnits="userSpaceOnUse">
      <stop stop-color="#FFFFFF" offset="0"/>
      <stop stop-color="#FFFFFF" stop-opacity=".28" offset=".38"/>
      <stop stop-color="#FFFFFF" stop-opacity="0" offset=".78"/>
    </linearGradient>
    <linearGradient id="paint0_stroke_169_3721" x1="53" x2="228" y1="16" y2="243" gradientUnits="userSpaceOnUse">
      <stop stop-color="#FFFFFF" offset="0"/>
      <stop stop-color="#DADAFD" stop-opacity=".58" offset=".34"/>
      <stop stop-color="#7569C6" stop-opacity=".18" offset=".72"/>
      <stop stop-color="#1A1A59" stop-opacity=".36" offset="1"/>
    </linearGradient>
    <linearGradient id="paint1_linear_169_3721" x1="182.6" x2="182.6" y1="52.85" y2="196.3" gradientUnits="userSpaceOnUse">
      <stop stop-color="#F7FCFE" offset="0"/>
      <stop stop-color="#CCADE8" offset="1"/>
    </linearGradient>
    <linearGradient id="paint2_linear_169_3721" x1="127.9" x2="127.9" y1="94.92" y2="195.8" gradientUnits="userSpaceOnUse">
      <stop stop-color="#F7FCFE" offset="0"/>
      <stop stop-color="#CCADE8" offset="1"/>
    </linearGradient>
    <linearGradient id="paint3_linear_169_3721" x1="72.86" x2="72.86" y1="52.85" y2="196" gradientUnits="userSpaceOnUse">
      <stop stop-color="#F7FCFE" offset="0"/>
      <stop stop-color="#CCADE8" offset="1"/>
    </linearGradient>
  </defs>
</svg>
